HIERARCHY
ROOT Hips
{
 OFFSET 0.000000 0.000000 0.000000
 CHANNELS 6 Xposition Yposition Zposition Yrotation Xrotation Zrotation
 JOINT Chest
 {
  OFFSET 0.000000 9.581000 -0.001100
  CHANNELS 3 Yrotation Xrotation Zrotation
  JOINT Chest2
  {
   OFFSET 0.000000 9.561100 0.002200
   CHANNELS 3 Yrotation Xrotation Zrotation
   JOINT Chest3
   {
    OFFSET 0.000000 9.521100 0.000000
    CHANNELS 3 Yrotation Xrotation Zrotation
    JOINT Chest4
    {
     OFFSET 0.000000 9.511400 0.000000
     CHANNELS 3 Yrotation Xrotation Zrotation
     JOINT Neck
     {
      OFFSET 0.000000 14.375100 0.000000
      CHANNELS 3 Yrotation Xrotation Zrotation
      JOINT Head
      {
       OFFSET 0.000000 8.901200 0.004600
       CHANNELS 3 Yrotation Xrotation Zrotation
       End Site
       {
        OFFSET 0.000000 16.962200 0.002400
       }
      }
     }
     JOINT RightCollar
     {
      OFFSET -2.920100 9.518800 0.000000
      CHANNELS 3 Yrotation Xrotation Zrotation
      JOINT RightShoulder
      {
       OFFSET -13.664500 0.000000 0.000000
       CHANNELS 3 Yrotation Xrotation Zrotation
       JOINT RightElbow
       {
        OFFSET 0.000000 -29.999200 0.000000
        CHANNELS 3 Yrotation Xrotation Zrotation
        JOINT RightWrist
        {
         OFFSET 0.000000 -24.253600 0.000000
         CHANNELS 3 Yrotation Xrotation Zrotation
         End Site
         {
          OFFSET 0.000000 -17.918900 0.000000
         }
        }
       }
      }
     }
     JOINT LeftCollar
     {
      OFFSET 2.920100 9.518800 0.000000
      CHANNELS 3 Yrotation Xrotation Zrotation
      JOINT LeftShoulder
      {
       OFFSET 13.664500 0.000000 0.000000
       CHANNELS 3 Yrotation Xrotation Zrotation
       JOINT LeftElbow
       {
        OFFSET 0.000000 -29.999200 0.000000
        CHANNELS 3 Yrotation Xrotation Zrotation
        JOINT LeftWrist
        {
         OFFSET 0.000000 -24.253600 0.000000
         CHANNELS 3 Yrotation Xrotation Zrotation
         End Site
         {
          OFFSET 0.000000 -17.918900 0.000000
         }
        }
       }
      }
     }
    }
   }
  }
 }
 JOINT RightHip
 {
  OFFSET -7.797300 0.005300 0.000500
  CHANNELS 3 Yrotation Xrotation Zrotation
  JOINT RightKnee
  {
   OFFSET 0.000000 -40.663400 -0.000500
   CHANNELS 3 Yrotation Xrotation Zrotation
   JOINT RightAnkle
   {
    OFFSET 0.000000 -39.523700 -0.000900
    CHANNELS 3 Yrotation Xrotation Zrotation
    JOINT RightToe
    {
     OFFSET 0.000000 -6.418000 14.485300
     CHANNELS 3 Yrotation Xrotation Zrotation
     End Site
     {
      OFFSET 0.000000 -1.465200 6.326400
     }
    }
   }
  }
 }
 JOINT LeftHip
 {
  OFFSET 7.797300 0.005300 0.000500
  CHANNELS 3 Yrotation Xrotation Zrotation
  JOINT LeftKnee
  {
   OFFSET 0.000000 -40.663400 -0.000500
   CHANNELS 3 Yrotation Xrotation Zrotation
   JOINT LeftAnkle
   {
    OFFSET 0.000000 -39.523700 -0.000900
    CHANNELS 3 Yrotation Xrotation Zrotation
    JOINT LeftToe
    {
     OFFSET 0.000000 -6.418000 14.485300
     CHANNELS 3 Yrotation Xrotation Zrotation
     End Site
     {
      OFFSET 0.000000 -1.465200 6.326400
     }
    }
   }
  }
 }
}
MOTION
Frames: 5
Frame Time: 0.008333
-13.226586 126.912618 33.528046 -160.423523 -50.190520 -2.795330 -3.594950 26.244929 -1.125131 -0.553666 4.412151 -0.068957 -0.890099 7.003074 -0.130515 -2.874060 21.522562 -0.781677 -0.431933 16.898517 -1.311040 -0.177007 -7.999497 -1.264062 1.351000 3.150663 2.250016 2.992184 -7.877421 -9.522858 -103.616011 -66.685060 152.473379 13.993248 23.190763 2.646414 -9.562364 -0.774327 -0.229550 -8.559639 -7.847809 12.180391 53.844907 -54.074401 -103.436937 4.875327 -8.636412 15.441629 -6.526814 -22.873319 -11.149493 -10.097020 78.745975 -11.432639 9.933184 -15.762731 3.335320 0.000283 -0.001406 0.000125 4.482377 5.873310 -1.985592 128.709979 65.038917 147.130198 10.859732 10.482971 3.004583 0.000689 0.010212 0.000305
-13.226490 126.911292 33.529524 -160.418396 -50.181140 -2.789832 -3.599347 26.239704 -1.132469 -0.545389 4.421526 -0.066684 -0.890261 7.003936 -0.131338 -2.863945 21.527573 -0.779450 -0.470744 16.867036 -1.355402 -0.216105 -8.044855 -1.330711 1.318597 3.154844 2.211531 2.881484 -7.809699 -9.343598 -103.612672 -66.719997 152.447646 14.048210 23.202949 2.829765 -9.586385 -0.783865 -0.228388 -8.520165 -7.839648 12.159778 53.807667 -54.062945 -103.376153 4.872655 -8.555587 15.383776 -6.530026 -22.881332 -11.159846 -10.123968 78.743846 -11.459749 9.933753 -15.811416 3.324201 0.000279 -0.003328 0.000124 4.469126 5.862648 -2.005642 128.713492 65.033045 147.116496 10.802455 10.400235 3.209726 0.000425 -0.011007 0.000188
-13.225843 126.910678 33.530269 -160.417305 -50.177775 -2.785659 -3.592336 26.245663 -1.129472 -0.542467 4.424783 -0.065870 -0.889034 7.009369 -0.131775 -2.833818 21.552968 -0.773682 -0.533198 16.806257 -1.406881 -0.248190 -8.084553 -1.381839 1.273022 3.120951 2.206950 2.770572 -7.728245 -9.202617 -103.619598 -66.754769 152.433853 14.102388 23.210735 3.007428 -9.626961 -0.813269 -0.228833 -8.488205 -7.833640 12.151452 53.762020 -54.045502 -103.315979 4.859246 -8.482900 15.328579 -6.531371 -22.887227 -11.165440 -10.129183 78.745577 -11.466876 9.934402 -15.833481 3.317041 0.000232 -0.001915 0.000103 4.464215 5.859138 -2.016093 128.708710 65.031500 147.113461 10.748326 10.343179 3.350253 0.008090 -0.026559 0.003583
-13.225458 126.911031 33.530310 -160.424634 -50.182344 -2.775210 -3.574361 26.260235 -1.121744 -0.551953 4.418961 -0.070052 -0.884962 7.016031 -0.132294 -2.831616 21.551424 -0.770279 -0.569047 16.773750 -1.479654 -0.272378 -8.120544 -1.418694 1.256663 3.132440 2.177624 2.666920 -7.664384 -9.055894 -103.630452 -66.790628 152.425166 14.157030 23.214685 3.176569 -9.637620 -0.820926 -0.228355 -8.479337 -7.830849 12.147950 53.739823 -54.006741 -103.255250 4.844920 -8.413166 15.271558 -6.537940 -22.887161 -11.164561 -10.169120 78.746910 -11.517714 9.931104 -15.852958 3.310055 -0.000648 -0.000736 -0.000287 4.467454 5.863024 -2.021893 128.716494 65.031342 147.117115 10.732828 10.319013 3.409388 0.010621 -0.029955 0.004703
-13.223826 126.911771 33.529655 -160.436865 -50.190111 -2.769875 -3.561129 26.269911 -1.114520 -0.548116 4.422443 -0.067998 -0.869043 7.038956 -0.124102 -2.843665 21.533305 -0.773320 -0.590066 16.754285 -1.507713 -0.296941 -8.174181 -1.497485 1.236617 3.140429 2.152480 2.570253 -7.605714 -8.927259 -103.634401 -66.824648 152.414040 14.206739 23.216571 3.332696 -9.649188 -0.821783 -0.230437 -8.443533 -7.828322 12.132632 53.659800 -53.956608 -103.143359 4.789244 -8.389220 15.187626 -6.537253 -22.881643 -11.155595 -10.178597 78.745135 -11.530390 9.924435 -15.866016 3.301315 -0.000941 -0.001201 -0.000417 4.475627 5.865644 -2.016766 128.722702 65.031777 147.124122 10.782139 10.382534 3.272339 0.007207 -0.009292 0.003193
